<?xml version="1.0" encoding="UTF-8" standalone="no"?>
<svg
   xmlns:dc="http://purl.org/dc/elements/1.1/"
   xmlns:cc="http://creativecommons.org/ns#"
   xmlns:rdf="http://www.w3.org/1999/02/22-rdf-syntax-ns#"
   xmlns:svg="http://www.w3.org/2000/svg"
   xmlns="http://www.w3.org/2000/svg"
   xmlns:sodipodi="http://sodipodi.sourceforge.net/DTD/sodipodi-0.dtd"
   xmlns:inkscape="http://www.inkscape.org/namespaces/inkscape"
   version="1.1"
   id="svg10"
   xml:space="preserve"
   width="448.10931"
   height="240.97733"
   viewBox="0 0 448.10931 240.97732"
   sodipodi:docname="Zive.cz.svg"
   inkscape:version="1.0 (4035a4fb49, 2020-05-01)"><metadata
     id="metadata16"><rdf:RDF><cc:Work
         rdf:about=""><dc:format>image/svg+xml</dc:format><dc:type
           rdf:resource="http://purl.org/dc/dcmitype/StillImage" /><dc:title></dc:title></cc:Work></rdf:RDF></metadata><defs
     id="defs14"><clipPath
       clipPathUnits="userSpaceOnUse"
       id="clipPath26"><path
         d="M 0,841.89 H 595.276 V 0 H 0 Z"
         id="path24" /></clipPath></defs><sodipodi:namedview
     fit-margin-bottom="0"
     fit-margin-right="0"
     fit-margin-left="0"
     fit-margin-top="0"
     inkscape:document-rotation="0"
     pagecolor="#ffffff"
     bordercolor="#666666"
     borderopacity="1"
     objecttolerance="10"
     gridtolerance="10"
     guidetolerance="10"
     inkscape:pageopacity="0"
     inkscape:pageshadow="2"
     inkscape:window-width="3840"
     inkscape:window-height="2066"
     id="namedview12"
     showgrid="false"
     inkscape:zoom="1.6445141"
     inkscape:cx="222.06268"
     inkscape:cy="118.81466"
     inkscape:window-x="2869"
     inkscape:window-y="-11"
     inkscape:window-maximized="1"
     inkscape:current-layer="g18" /><g
     id="g18"
     inkscape:groupmode="layer"
     inkscape:label="Zive.cz"
     transform="matrix(1.3333333,0,0,-1.3333333,-174.788,680.07465)"><g
       id="g20"><g
         id="g22"
         clip-path="url(#clipPath26)"><path
           d="m 173.852,353.263 49.067,65.892 h -84.117 v -21.029 h 41.709 l -49.42,-65.895 h 88.675 v 21.032 z"
           style="fill:#d00000;fill-opacity:1;fill-rule:evenodd;stroke:none"
           id="path28" /><path
           d="m 261.347,418.805 h -24.185 v -86.573 h 24.185 z"
           style="fill:#d00000;fill-opacity:1;fill-rule:evenodd;stroke:none"
           id="path30" /><path
           d="m 299.549,418.805 h -26.986 l 44.161,-88.326 h 10.866 l 44.512,88.326 h -26.989 l -22.782,-49.069 z"
           style="fill:#d00000;fill-opacity:1;fill-rule:evenodd;stroke:none"
           id="path32" /><path
           d="m 449.336,504.652 -23.555,-30.86 -28.667,36.264 -23.841,-31.025 -24.528,31.025 -23.839,-31.025 -24.528,31.025 -23.84,-31.025 -24.528,31.025 -23.84,-31.025 -24.527,31.025 -27.561,-35.866 -22.91,30.462 -12.968,-19.815 36.451,-48.037 27.653,35.756 21.634,-28.342 1.464,-2.595 24.604,31.81 23.834,-31.223 24.534,31.223 22.449,-29.412 1.359,-2.398 23.482,31.224 24.91,-30.637 24.536,31.223 28.39,-36.629 37.151,48.037 z"
           style="fill:#d00000;fill-opacity:1;fill-rule:evenodd;stroke:none"
           id="path34" /><path
           d="m 467.173,371.377 v 3.2 c 0,29.16 -16.765,46.91 -44.306,46.91 -27.543,0 -45.304,-18.152 -45.304,-46.31 0,-27.69 18.36,-45.854 46.501,-45.854 20.357,0 34.926,9.183 42.31,26.926 l -22.353,3.582 c -5.588,-8.161 -11.376,-11.545 -20.556,-11.545 -13.172,0 -20.557,8.162 -21.156,23.091 z m -64.066,15.399 c 2.196,10.905 9.581,17.367 20.358,17.367 10.777,0 17.962,-6.059 20.556,-17.367 z"
           style="fill:#d00000;fill-opacity:1;fill-rule:nonzero;stroke:none"
           id="path36" /></g></g></g></svg>
